<?xml version="1.0" standalone="no"?>
<!DOCTYPE svg PUBLIC "-//W3C//DTD SVG 20010904//EN"
 "http://www.w3.org/TR/2001/REC-SVG-20010904/DTD/svg10.dtd">
<svg version="1.0" xmlns="http://www.w3.org/2000/svg"
 width="2079.000000pt" height="2079.000000pt" viewBox="0 0 2079.000000 2079.000000"
 preserveAspectRatio="xMidYMid meet">
<metadata>
Created by potrace 1.14, written by Peter Selinger 2001-2017
</metadata>
<g transform="translate(0.000000,2079.000000) scale(0.100000,-0.100000)"
fill="#000000" stroke="none">
<path d="M4142 13489 c0 -4165 0 -4249 19 -4249 10 0 19 -4 19 -8 0 -5 6 -9
13 -9 11 0 202 -66 562 -194 77 -28 151 -54 165 -59 69 -24 207 -72 220 -77 8
-3 20 -7 25 -9 6 -1 75 -26 155 -54 80 -29 222 -79 315 -112 94 -33 240 -85
325 -115 85 -30 173 -61 195 -68 22 -7 85 -30 140 -50 55 -21 112 -40 127 -42
16 -3 25 -10 21 -16 -3 -5 -2 -7 4 -4 5 4 79 -19 164 -49 85 -31 159 -57 164
-58 6 -2 17 -6 25 -9 8 -3 62 -23 120 -43 58 -20 155 -54 215 -76 61 -21 135
-47 165 -57 30 -11 120 -42 200 -71 80 -28 195 -68 255 -89 61 -22 130 -46
155 -55 25 -9 86 -30 135 -47 50 -16 99 -34 110 -39 33 -14 195 -70 197 -67 0
1 2 1000 3 2219 1 1220 4 2220 7 2223 3 3 21 -1 39 -9 94 -40 237 -99 334
-138 28 -11 69 -28 92 -39 23 -10 44 -19 46 -19 3 0 31 -12 63 -27 33 -14 64
-27 69 -29 6 -1 66 -25 135 -54 69 -29 163 -67 210 -86 47 -19 100 -42 117
-50 18 -8 50 -21 70 -29 21 -7 126 -50 233 -95 107 -45 208 -86 223 -92 29
-11 51 -4 182 57 28 13 95 43 150 68 55 25 136 61 180 82 44 20 89 41 100 45
17 6 262 116 485 217 277 125 345 155 361 158 15 3 17 -169 17 -2188 1 -1206
1 -2222 1 -2259 l1 -67 100 44 c55 24 100 41 100 37 0 -4 4 -2 8 4 4 6 36 22
72 37 36 14 138 57 227 96 89 39 168 72 175 73 7 2 15 5 18 8 8 8 67 35 165
75 50 20 114 48 143 62 28 15 59 26 67 26 8 0 15 4 15 8 0 4 11 10 24 13 23 6
161 66 199 87 11 6 20 9 22 7 3 -3 16 -996 20 -1538 4 -503 1 -452 28 -445 12
3 42 14 67 25 39 16 72 29 90 35 3 1 16 6 30 12 14 6 43 16 65 23 22 7 51 18
65 25 14 7 43 18 65 25 34 11 177 65 250 95 11 5 22 9 25 10 3 1 18 7 33 13
15 7 40 15 55 18 15 3 41 12 57 19 54 24 250 97 265 100 8 1 35 11 60 22 25
11 99 39 165 62 134 48 145 53 195 74 19 9 49 19 65 23 17 4 39 13 50 20 12 8
30 15 40 17 11 2 27 7 35 10 67 28 156 57 171 57 11 0 19 5 19 11 0 6 7 9 15
5 8 -3 15 -2 15 3 0 4 26 16 58 26 31 11 62 22 67 26 8 5 102 39 125 44 6 2
18 7 103 42 32 13 63 21 69 17 7 -4 8 -3 4 4 -4 7 -1 12 7 12 11 0 195 67 542
199 28 11 82 30 120 44 39 14 113 41 165 60 52 20 109 39 125 43 17 3 37 12
45 19 8 7 45 22 82 34 37 11 86 29 110 39 24 11 68 28 98 37 30 10 66 24 80
30 14 7 61 25 105 40 44 14 89 30 100 35 53 24 150 60 161 60 6 0 14 7 18 15
3 8 5 1889 5 4181 l0 4165 -22 -6 c-12 -4 -35 -12 -52 -20 -16 -7 -91 -36
-165 -65 -74 -28 -160 -62 -190 -75 -129 -53 -280 -106 -290 -100 -5 3 -10 1
-10 -5 0 -12 -3 -13 -145 -65 -55 -21 -112 -43 -126 -51 -15 -8 -35 -15 -45
-17 -11 -2 -32 -9 -47 -15 -16 -7 -34 -12 -40 -12 -7 0 -21 -7 -31 -15 -11 -8
-22 -15 -25 -15 -4 0 -6 421 -6 936 0 515 -3 938 -6 940 -4 2 -51 -14 -105
-36 -55 -21 -151 -59 -214 -83 -63 -24 -124 -48 -135 -53 -11 -4 -24 -8 -30
-9 -5 0 -14 -3 -20 -7 -5 -3 -53 -23 -105 -43 -199 -77 -275 -107 -620 -241
-195 -75 -400 -155 -455 -176 -55 -22 -116 -45 -135 -51 -19 -6 -38 -15 -41
-20 -3 -5 -9 -8 -13 -7 -7 2 -126 -42 -186 -68 -19 -8 -37 -16 -40 -16 -17 -4
-167 -61 -175 -66 -5 -4 -41 -18 -80 -30 -38 -13 -74 -27 -80 -31 -20 -14
-118 -48 -126 -44 -4 3 -9 1 -11 -4 -2 -7 -328 -136 -728 -288 -36 -13 -74
-28 -85 -33 -11 -5 -72 -29 -135 -53 -63 -24 -124 -48 -135 -52 -11 -4 -24 -9
-30 -11 -5 -1 -39 -14 -75 -29 -36 -14 -119 -46 -185 -71 -66 -25 -139 -54
-162 -65 -24 -10 -45 -19 -47 -19 -3 0 -81 -30 -173 -66 -92 -36 -172 -67
-178 -69 -5 -1 -21 -7 -35 -13 -14 -5 -97 -38 -185 -71 -88 -34 -169 -65 -180
-70 -11 -5 -81 -33 -155 -61 -74 -28 -144 -55 -155 -60 -11 -5 -58 -23 -105
-40 -47 -17 -98 -37 -115 -44 -31 -14 -36 -16 -233 -91 l-123 -48 -42 18 c-46
19 -132 55 -187 78 -19 8 -163 69 -320 135 -157 66 -303 128 -325 138 -22 9
-42 18 -45 18 -3 1 -43 17 -90 37 -98 42 -123 52 -130 53 -3 1 -21 9 -40 18
-19 9 -177 75 -350 148 -173 73 -330 138 -347 146 -74 32 -106 45 -283 119
-102 42 -204 86 -227 96 -24 11 -82 35 -130 55 -83 34 -118 49 -188 79 -16 7
-59 25 -95 40 -36 15 -78 33 -95 40 -16 7 -102 43 -190 79 -88 37 -169 71
-180 76 -34 16 -737 311 -790 332 -27 11 -79 33 -115 50 -36 17 -69 31 -75 33
-5 1 -21 7 -35 12 -256 108 -355 150 -455 193 -66 28 -127 53 -134 54 -8 2
-17 8 -19 14 -2 7 -7 10 -12 7 -7 -5 -48 11 -135 50 -70 32 -110 48 -117 47
-5 -1 -8 2 -8 6 0 5 -6 9 -12 9 -11 1 -158 61 -308 126 -14 5 -27 11 -30 12
-3 1 -23 9 -45 19 -22 10 -62 27 -89 37 -27 11 -68 28 -90 38 -23 10 -49 21
-58 24 -15 5 -16 -277 -16 -4244z"/>
<path d="M6215 5789 c-104 -20 -122 -25 -180 -44 -199 -68 -366 -217 -450
-400 -38 -82 -42 -93 -56 -145 -20 -80 -23 -103 -22 -230 0 -212 56 -371 185
-521 111 -130 250 -207 463 -255 17 -3 95 -8 175 -9 259 -5 466 61 629 200
125 107 222 284 248 453 9 62 10 255 1 312 -54 333 -301 575 -647 634 -84 15
-284 18 -346 5z m255 -289 c200 -54 324 -253 319 -514 -3 -172 -47 -302 -134
-395 -78 -84 -152 -117 -271 -124 -215 -13 -384 128 -438 363 -20 91 -15 275
11 355 4 11 8 26 9 33 6 32 60 124 100 170 93 107 257 152 404 112z"/>
<path d="M8319 5795 c-3 -2 -25 -6 -51 -9 -72 -9 -122 -18 -130 -23 -5 -2 -18
-6 -30 -8 -66 -13 -281 -103 -298 -125 -3 -3 -25 -20 -50 -37 -97 -66 -208
-209 -251 -322 -63 -168 -70 -386 -18 -550 94 -296 341 -476 724 -529 109 -15
426 -7 528 14 12 2 47 8 77 14 30 5 89 17 130 27 l75 18 3 423 2 422 -332 -2
-333 -3 0 -137 -1 -138 138 0 138 0 -2 -172 c-3 -162 -4 -171 -23 -174 -78
-12 -112 -14 -177 -15 -40 0 -84 3 -98 6 -14 3 -41 8 -60 11 -89 15 -210 82
-269 149 -89 102 -125 201 -126 345 0 58 3 119 6 135 41 188 196 334 394 369
17 3 41 8 55 11 37 8 216 9 293 1 57 -6 173 -31 239 -52 13 -4 20 8 34 53 9
32 18 63 19 68 2 6 12 41 24 79 11 37 21 72 21 76 0 10 -122 44 -198 56 -20 3
-48 8 -62 11 -30 6 -386 14 -391 8z"/>
<path d="M10729 5796 c-2 -2 -26 -6 -54 -10 -128 -15 -284 -81 -358 -150 -107
-102 -146 -187 -143 -318 2 -102 30 -170 102 -246 42 -43 202 -152 224 -152 4
0 23 -6 41 -14 19 -8 37 -14 42 -15 4 0 21 -8 37 -16 17 -9 30 -13 30 -9 0 4
7 0 17 -7 9 -8 18 -13 20 -11 1 1 4 2 6 1 1 0 9 -2 17 -4 87 -18 197 -84 231
-138 38 -61 11 -149 -59 -190 -30 -18 -41 -21 -113 -36 -107 -23 -341 11 -489
69 -38 15 -52 17 -55 7 -14 -40 -75 -263 -75 -273 0 -10 69 -40 113 -50 4 -1
8 -2 10 -4 5 -4 29 -9 177 -35 100 -18 372 -12 460 9 76 19 95 24 95 26 0 1 7
3 15 5 105 23 255 139 305 235 88 172 57 362 -80 488 -81 73 -152 110 -355
184 -188 68 -251 99 -287 142 -21 25 -24 37 -21 78 6 54 25 81 79 109 48 24
78 30 169 33 94 3 218 -15 309 -45 39 -12 72 -21 75 -18 9 11 86 270 82 278
-8 13 -143 49 -239 65 -78 12 -318 21 -328 12z"/>
<path d="M14745 5790 c-142 -21 -214 -40 -317 -85 -254 -110 -421 -307 -474
-560 -18 -82 -23 -210 -12 -280 4 -27 10 -63 12 -80 7 -39 39 -133 61 -176 89
-173 248 -300 467 -375 37 -12 68 -21 68 -19 0 3 11 0 24 -4 62 -24 379 -35
526 -17 76 8 209 41 222 54 5 5 2 35 -6 73 -8 35 -17 75 -20 89 -2 14 -9 46
-16 71 l-12 47 -46 -15 c-124 -37 -333 -46 -462 -19 -205 43 -355 187 -389
376 -10 56 -8 204 3 251 57 242 259 381 556 381 59 0 120 -3 136 -6 16 -3 45
-8 64 -11 19 -3 57 -12 84 -20 53 -16 73 -19 64 -9 -4 3 0 24 7 47 47 145 66
220 59 227 -52 47 -425 85 -599 60z"/>
<path d="M16159 5796 c-2 -2 -26 -6 -54 -10 -138 -16 -296 -88 -381 -173 -32
-32 -66 -79 -86 -120 -29 -62 -32 -77 -33 -163 0 -82 4 -103 26 -150 36 -76
97 -141 183 -195 64 -40 222 -111 266 -120 70 -14 208 -76 251 -112 73 -62 78
-158 11 -215 -101 -84 -352 -84 -597 0 -47 17 -87 27 -89 23 -5 -7 -34 -114
-42 -150 -3 -13 -10 -34 -16 -45 -6 -12 -10 -22 -9 -24 1 -1 -1 -16 -4 -33 -5
-22 -3 -34 6 -40 20 -12 134 -45 199 -58 30 -6 69 -13 85 -17 52 -11 327 -13
390 -3 33 5 85 16 115 24 30 9 62 17 71 19 83 21 202 101 264 177 99 121 118
300 46 440 -64 125 -196 208 -476 303 -115 39 -220 93 -250 127 -18 22 -25 42
-25 71 0 91 91 149 238 151 135 2 210 -9 334 -48 32 -10 59 -17 61 -14 14 15
87 273 81 279 -11 10 -138 49 -179 55 -16 3 -57 9 -90 14 -56 8 -289 14 -296
7z"/>
<path d="M4277 5773 c-2 -5 -3 -359 -3 -788 l1 -780 558 -3 557 -2 0 150 0
150 -355 0 -355 0 0 640 0 640 -199 0 c-110 0 -202 -3 -204 -7z"/>
<path d="M9407 5773 c-2 -5 -3 -359 -3 -788 l1 -780 203 -3 202 -2 0 790 0
790 -199 0 c-110 0 -201 -3 -204 -7z"/>
<path d="M11559 5730 c0 -27 0 -70 0 -95 0 -25 0 -70 0 -100 l1 -55 240 0 240
0 0 -640 0 -640 202 2 203 3 0 635 0 635 244 5 243 5 0 115 c0 63 -1 130 -1
148 l-1 32 -685 0 -685 0 -1 -50z"/>
<path d="M13208 5768 c-2 -7 -4 -362 -4 -788 l1 -775 203 -3 202 -2 0 790 0
790 -199 0 c-150 0 -200 -3 -203 -12z"/>
</g>
</svg>
